<svg width="512" height="512" viewBox="0 0 512 512" fill="none" xmlns="http://www.w3.org/2000/svg">
  <rect width="512" height="512" rx="112" fill="#2563EB"/>
  <path d="M128 266C128 202 180 150 244 150C308 150 360 202 360 266V326H333V266C333 217 293 177 244 177C195 177 155 217 155 266V326H128V266Z" fill="white"/>
  <path d="M195 272C195 244 218 221 246 221C274 221 297 244 297 272C297 300 274 323 246 323C218 323 195 300 195 272Z" fill="#22C55E"/>
  <path d="M318 202L392 128L411 147L337 221L318 202Z" fill="#DCFCE7"/>
  <path d="M337 221L411 295L392 314L318 240L337 221Z" fill="#DCFCE7"/>
  <path d="M120 371H392V404H120V371Z" fill="white"/>
</svg>
